Coordinates
version=1
nRows=24
nColumns=24
inDegrees=yes

Units are S.I. units (second, meters, Newtons, ...)
Angles are in degrees.

endheader
time	pelvis_tilt	pelvis_list	pelvis_rotation	pelvis_tx	pelvis_ty	pelvis_tz	hip_flexion_r	hip_adduction_r	hip_rotation_r	knee_angle_r	ankle_angle_r	subtalar_angle_r	mtp_angle_r	hip_flexion_l	hip_adduction_l	hip_rotation_l	knee_angle_l	ankle_angle_l	subtalar_angle_l	mtp_angle_l	lumbar_extension	lumbar_bending	lumbar_rotation
      1.50450000	     -4.25059972	     -3.43558362	    -10.32290094	      0.95351765	      0.98504802	      0.30544327	    -14.13718226	      6.00775027	     11.00467186	    -15.54164383	     13.98925186	     -1.52372114	      7.30465277	     33.19846849	     -7.61418735	     -8.28263965	     -1.52791476	     13.97981878	     -5.24238663	     -1.41121193	      2.78447517	      1.82252390	     10.37825853
      1.50866667	     -4.25632743	     -3.36107288	    -10.41753936	      0.95970830	      0.98429758	      0.30499171	    -14.40517041	      5.78711800	     10.90887791	    -15.63523018	     13.74792208	     -1.33524295	      7.36554712	     33.19196050	     -7.52932846	     -8.07189615	     -2.07396637	     14.20153988	     -5.45544244	     -1.38028468	      2.91188155	      1.76930592	     10.51671660
      1.51283333	     -4.27146741	     -3.26966606	    -10.52126087	      0.96594616	      0.98353003	      0.30451277	    -14.63796879	      5.54081304	     10.77129388	    -15.77678503	     13.57991895	     -1.00877394	      7.65187812	     33.16570171	     -7.42143363	     -7.79253690	     -2.56668386	     14.26542077	     -5.89612814	     -1.26449369	      3.04260793	      1.71812559	     10.82381948
      1.51700000	     -4.28005480	     -3.17780793	    -10.61174399	      0.97226250	      0.98277520	      0.30403620	    -14.89188364	      5.30493259	     10.68274037	    -15.88934891	     13.27240913	     -0.88840952	      7.70757043	     33.13977746	     -7.31218499	     -7.63306804	     -3.09478191	     14.41320287	     -6.03405784	     -1.23241085	      3.18827198	      1.64731245	     10.85995183
      1.52116667	     -4.29683084	     -3.07262773	    -10.70790436	      0.97861162	      0.98201472	      0.30352299	    -15.10010862	      5.04527385	     10.51206393	    -16.07137810	     13.05595767	     -0.58303244	      8.14858391	     33.09022111	     -7.17893160	     -7.36205222	     -3.56331036	     14.38676878	     -6.46442763	     -1.03637839	      3.34873293	      1.57588276	     11.11769518
      1.52533333	     -4.32407760	     -2.96909021	    -10.77420083	      0.98505092	      0.98123878	      0.30298264	    -15.32478825	      4.80575479	     10.40087922	    -16.18647706	     12.61027633	     -0.56002494	     11.18080911	     33.05790440	     -7.03704213	     -7.16689963	     -4.03277700	     14.29631918	     -6.73420325	      0.45375931	      3.54047001	      1.50545225	     11.07099208
      1.52950000	     -4.34039179	     -2.85989437	    -10.85709590	      0.99149848	      0.98049618	      0.30245534	    -15.52738897	      4.55273929	     10.26240664	    -16.37544448	     12.26934550	     -0.38798581	     11.19516668	     33.01099291	     -6.89967886	     -7.05500301	     -4.51759851	     14.27765612	     -6.82952429	      0.46857296	      3.71468470	      1.41175996	     11.18003603
      1.53366667	     -4.36535061	     -2.71468297	    -10.94473887	      0.99800524	      0.97974458	      0.30188984	    -15.68749901	      4.25448044	     10.06213254	    -16.62175292	     12.01910293	     -0.08128999	     11.31846850	     32.94785995	     -6.71781612	     -6.88112180	     -4.94113658	     14.06522663	     -7.18734397	      0.55383328	      3.90546885	      1.29835009	     11.43261858
      1.53783333	     -4.40097033	     -2.57034229	    -11.01312634	      1.00454968	      0.97898803	      0.30130388	    -15.83456948	      3.97077952	      9.87702217	    -16.86726495	     11.68272624	      0.11238721	     11.51735122	     32.89252075	     -6.52754709	     -6.70328553	     -5.34505709	     13.78115714	     -7.50966166	      0.69112538	      4.12311533	      1.17806821	     11.53863120
      1.54200000	     -4.43666116	     -2.41711948	    -11.08151690	      1.01110755	      0.97825462	      0.30069884	    -15.95936996	      3.67745627	      9.67564666	    -17.14716021	     11.31336956	      0.31159704	     11.81381195	     32.83211167	     -6.32755363	     -6.55960030	     -5.73144665	     13.42167500	     -7.82191731	      0.89723256	      4.33794854	      1.06408983	     11.64517588
      1.54616667	     -4.46164537	     -2.27171122	    -11.12092427	      1.01771393	      0.97754991	      0.30006626	    -16.11315783	      3.40610921	      9.51895677	    -17.38257916	     10.77580667	      0.34284323	     13.94826272	     32.76765080	     -6.11969627	     -6.40512374	     -6.11509122	     12.93923624	     -8.17621657	      2.40757028	      4.54067402	      0.93805260	     11.58768122
      1.55033333	     -4.50208565	     -2.08503799	    -11.18010095	      1.02434036	      0.97682820	      0.29942701	    -16.18241599	      3.07896829	      9.24439330	    -17.74806624	     10.43341819	      0.61522841	     14.03710758	     32.73729744	     -5.89240579	     -6.39646267	     -6.53406357	     12.50375685	     -8.30005363	      2.45669138	      4.78760593	      0.78162847	     11.79471630
      1.55450000	     -4.54464149	     -1.89348411	    -11.21750829	      1.03098649	      0.97613971	      0.29874986	    -16.24533243	      2.75886987	      8.98932143	    -18.11168232	     10.00307710	      0.79986673	     14.21763779	     32.69388183	     -5.64025920	     -6.28971295	     -6.90010665	     11.89759197	     -8.63524276	      2.56592558	      5.03666448	      0.61590613	     11.87477434
      1.55866667	     -4.59103625	     -1.68991441	    -11.24120896	      1.03762154	      0.97545992	      0.29805395	    -16.28070176	      2.43447605	      8.71675061	    -18.51093882	      9.54426446	      0.95636871	     14.45446399	     32.67595077	     -5.37461871	     -6.20427119	     -7.29478243	     11.25582469	     -8.94352319	      2.71479089	      5.28684567	      0.43078588	     11.93089787
      1.56283333	     -4.62787518	     -1.48616267	    -11.24181491	      1.04428543	      0.97483495	      0.29730944	    -16.31633519	      2.11200075	      8.41510211	    -18.92024497	      9.02616783	      1.16975289	     14.89748595	     32.65023576	     -5.09258828	     -6.07960645	     -7.68090110	     10.50860656	     -9.29466411	      2.98629517	      5.52555983	      0.24665399	     11.99297788
      1.56700000	     -4.65728447	     -1.25639487	    -11.23915351	      1.05096380	      0.97425564	      0.29658393	    -16.34199483	      1.77286328	      8.14053376	    -19.34149660	      8.36626980	      1.16975278	     17.66429537	     32.64250285	     -4.79827513	     -6.09074680	     -8.11536040	      9.77993255	     -9.49803820	      4.68427807	      5.75530301	      0.02386133	     11.96320510
      1.57116667	     -4.71931410	     -0.99753903	    -11.21118305	      1.05766580	      0.97363966	      0.29579504	    -16.28681675	      1.40668893	      7.74560173	    -19.85467006	      7.86746833	      1.38281805	     17.74547457	     32.69779243	     -4.46977168	     -6.09667260	     -8.59678761	      9.10354886	     -9.64345783	      4.70557812	      6.05407210	     -0.22982094	     12.02416157
      1.57533333	     -4.73336024	     -0.75207917	    -11.17194466	      1.06434241	      0.97314793	      0.29501095	    -16.28470241	      1.05879130	      7.39843841	    -20.34792752	      7.20642223	      1.44444628	     17.77294666	     32.72890303	     -4.15361422	     -6.16233183	     -9.13348921	      8.46984047	     -9.64143334	      4.71033312	      6.28424051	     -0.47714319	     12.02423879
      1.57950000	     -4.77631416	     -0.44837523	    -11.11048118	      1.07100507	      0.97263163	      0.29414234	    -16.18826765	      0.65131737	      6.94121582	    -20.95389585	      6.67992486	      1.67021370	     17.99023420	     32.78667827	     -3.75452526	     -6.06561054	     -9.64099556	      7.66200559	    -10.06989404	      4.78744697	      6.54624630	     -0.80605063	     12.01817067
      1.58366667	     -4.78490075	     -0.16719055	    -11.01992090	      1.07765759	      0.97221723	      0.29323982	    -16.12889956	      0.27113363	      6.47908992	    -21.54614207	      5.99511548	      1.84650646	     18.43217151	     32.83695211	     -3.36695844	     -5.99557406	    -10.20712373	      6.93631492	    -10.31837946	      4.94711345	      6.75434346	     -1.10306636	     11.99157798
      1.58783333	     -4.77285273	      0.12774984	    -10.92262296	      1.08432835	      0.97188027	      0.29236888	    -16.08113747	     -0.11509124	      6.03318037	    -22.14537694	      5.21935234	      1.85381464	     18.49534298	     32.90936829	     -2.98497014	     -6.09455380	    -10.88843147	      6.43199955	    -10.25462701	      4.96481458	      6.96061521	     -1.43185284	     11.98125413
      1.59200000	     -4.76171765	      0.43929143	    -10.80897581	      1.09096788	      0.97157294	      0.29145357	    -15.99612582	     -0.51876255	      5.53720114	    -22.80351375	      4.44558471	      1.91799337	     18.57758873	     33.00598172	     -2.57963781	     -6.16923710	    -11.61457067	      5.92316130	    -10.25298478	      4.98524091	      7.15968563	     -1.78468158	     11.95548907
      1.59616667	     -4.75934580	      0.77960514	    -10.66025213	      1.09760686	      0.97126553	      0.29044172	    -15.86564102	     -0.95793195	      4.93891742	    -23.51276002	      3.62819915	      2.06657167	     22.94066032	     33.11927125	     -2.11728713	     -6.12039031	    -12.34232670	      5.33945553	    -10.46279528	      6.07220002	      7.35386112	     -2.18467287	     11.86740926
      1.60033333	     -4.70105179	      1.10094029	    -10.51357911	      1.10423089	      0.97110143	      0.28946110	    -15.78950174	     -1.37796198	      4.37956385	    -24.23019021	      2.75492458	      2.11174193	     22.93728193	     33.20060043	     -1.68603269	     -6.20216976	    -13.15707315	      4.97773604	    -10.41007584	      6.06270899	      7.49030012	     -2.55203930	     11.83989729
